<svg width="300" height="102" viewBox="0 0 300 102" fill="none" xmlns="http://www.w3.org/2000/svg">
	<g class="cls-n">
		<path d="M261.38 62.1094C261.242 62.1094 261.154 62.1705 261.118 62.2943L256.895 75.8888C256.859 76.0051 256.826 76.1265 256.797 76.254C256.768 76.3805 256.739 76.5168 256.711 76.6621C256.652 76.3716 256.587 76.1139 256.514 75.8888L251.802 62.2943C251.765 62.1705 251.685 62.1094 251.562 62.1094H251.421C251.283 62.1094 251.195 62.1705 251.16 62.2943L246.446 75.8888C246.41 76.0051 246.376 76.1288 246.343 76.2591C246.31 76.3898 246.28 76.5281 246.251 76.6728C246.199 76.3968 246.138 76.1363 246.065 75.8888L241.842 62.2943C241.806 62.1705 241.726 62.1094 241.603 62.1094H241.113L245.957 77.4129H246.479L251.355 63.2851C251.407 63.1399 251.446 62.9947 251.475 62.8499C251.504 62.9947 251.544 63.1399 251.595 63.2851L256.449 77.4129H256.982L261.826 62.1094H261.38ZM267.638 76.9011V69.9026H274.746V69.4021H267.638V62.6207H276.074V62.1094H267.04V77.4129H276.074L276.096 76.9011H267.638ZM282.474 76.9231V69.8924H286.61C287.291 69.8924 287.906 69.9722 288.455 70.131C289.003 70.2911 289.467 70.519 289.848 70.8169C290.229 71.1148 290.523 71.4734 290.729 71.8946C290.936 72.3153 291.04 72.7911 291.04 73.3202C291.04 74.4959 290.657 75.3906 289.891 76.0037C289.126 76.6168 288.028 76.9231 286.598 76.9231H282.474ZM286.022 62.5885C287.495 62.5885 288.589 62.8822 289.303 63.4705C290.018 64.0575 290.376 64.8993 290.376 65.9953C290.376 66.394 290.298 66.7989 290.142 67.2088C289.986 67.6188 289.735 67.9891 289.391 68.3188C289.046 68.6493 288.603 68.9178 288.063 69.1242C287.522 69.3306 286.867 69.4343 286.098 69.4343H282.474V62.5885H286.022ZM281.875 62.1094V77.4129H286.598C287.397 77.4129 288.108 77.3223 288.732 77.1411C289.356 76.9595 289.884 76.6947 290.316 76.3464C290.747 75.9981 291.076 75.5722 291.301 75.0675C291.525 74.5632 291.639 73.9842 291.639 73.3314C291.639 72.8019 291.548 72.3209 291.366 71.889C291.185 71.4571 290.921 71.0835 290.577 70.7683C290.233 70.4527 289.813 70.1949 289.32 69.9951C288.826 69.7962 288.267 69.6631 287.644 69.5982C288.145 69.5034 288.6 69.3404 289.01 69.1079C289.42 68.8763 289.768 68.5961 290.055 68.2697C290.341 67.9433 290.564 67.5824 290.724 67.1874C290.883 66.7919 290.963 66.38 290.963 65.9514C290.963 64.7252 290.557 63.7782 289.745 63.1105C288.932 62.4432 287.691 62.1094 286.022 62.1094H281.875Z" fill="#272F2F" />
		<path d="M205.352 32.2266C204.942 32.2266 204.599 32.3652 204.322 32.6421C204.045 32.9195 203.906 33.2627 203.906 33.6722V49.7186C203.906 50.1286 204.038 50.4774 204.304 50.7665C204.569 51.0555 204.918 51.2002 205.352 51.2002C205.761 51.2002 206.105 51.0555 206.382 50.7665C206.659 50.4774 206.798 50.1286 206.798 49.7186V33.6722C206.798 33.2627 206.659 32.9195 206.382 32.6421C206.105 32.3652 205.761 32.2266 205.352 32.2266Z" fill="#272F2F" />
		<path d="M193.448 26.0742C193.038 26.0742 192.683 26.2129 192.381 26.4898C192.08 26.7672 191.93 27.1225 191.93 27.5558V37.0973H178.268V27.5558C178.268 27.1225 178.123 26.7672 177.835 26.4898C177.545 26.2129 177.196 26.0742 176.787 26.0742C176.352 26.0742 175.991 26.2129 175.702 26.4898C175.413 26.7672 175.269 27.1225 175.269 27.5558V49.891C175.269 50.301 175.4 50.6498 175.666 50.9388C175.931 51.2279 176.293 51.3726 176.751 51.3726C177.16 51.3726 177.515 51.2279 177.817 50.9388C178.118 50.6498 178.268 50.301 178.268 49.891V39.9162H191.93V49.891C191.93 50.301 192.074 50.6498 192.363 50.9388C192.653 51.2279 193.002 51.3726 193.412 51.3726C193.845 51.3726 194.207 51.2279 194.496 50.9388C194.785 50.6498 194.93 50.301 194.93 49.891V27.5558C194.93 27.1225 194.79 26.7672 194.514 26.4898C194.237 26.2129 193.881 26.0742 193.448 26.0742Z" fill="#272F2F" />
		<path d="M205.42 26.3672C204.842 26.3672 204.396 26.4881 204.083 26.7286C203.77 26.9695 203.613 27.3431 203.613 27.8488V28.3549C203.613 28.8606 203.757 29.2347 204.047 29.4751C204.336 29.7165 204.782 29.8365 205.384 29.8365C205.962 29.8365 206.401 29.7165 206.703 29.4751C207.004 29.2347 207.155 28.8606 207.155 28.3549V27.8488C207.155 27.3431 207.01 26.9695 206.721 26.7286C206.432 26.4881 205.998 26.3672 205.42 26.3672Z" fill="#272F2F" />
		<path d="M228.978 45.6348C228.423 46.6957 227.665 47.532 226.701 48.1465C225.737 48.7605 224.629 49.0677 223.376 49.0677C222.123 49.0677 221.014 48.7549 220.051 48.1282C219.087 47.5025 218.328 46.6532 217.774 45.5806C217.22 44.509 216.943 43.3099 216.943 41.9847C216.943 40.6114 217.22 39.395 217.774 38.3346C218.328 37.2747 219.087 36.437 220.051 35.8225C221.014 35.208 222.123 34.9012 223.376 34.9012C224.629 34.9012 225.737 35.2024 226.701 35.8047C227.665 36.4071 228.423 37.2382 228.978 38.2982C229.532 39.3586 229.809 40.5876 229.809 41.9847C229.809 43.358 229.532 44.5748 228.978 45.6348ZM231.074 32.5156C230.664 32.5156 230.321 32.6547 230.044 32.9312C229.767 33.2085 229.629 33.5517 229.629 33.9612V35.6044C229.271 35.0875 228.811 34.587 228.237 34.106C227.574 33.5517 226.797 33.1002 225.906 32.7505C225.014 32.4017 224.038 32.2266 222.978 32.2266C221.316 32.2266 219.822 32.6421 218.497 33.4733C217.171 34.3044 216.117 35.4555 215.335 36.9249C214.551 38.3949 214.16 40.0814 214.16 41.9847C214.16 43.8641 214.551 45.5391 215.335 47.0076C216.117 48.478 217.178 49.6341 218.514 50.4774C219.852 51.3212 221.364 51.7424 223.051 51.7424C223.845 51.7424 224.635 51.6158 225.418 51.3627C226.2 51.1097 226.911 50.7613 227.55 50.3149C228.188 49.869 228.725 49.3572 229.158 48.7787C229.343 48.5326 229.496 48.2758 229.629 48.012V50.0805C229.629 51.839 229.086 53.2539 228.002 54.3269C226.918 55.3985 225.351 55.9346 223.304 55.9346C222.725 55.9346 222.134 55.8687 221.532 55.7361C220.93 55.603 220.4 55.4522 219.943 55.2846C219.485 55.1155 219.135 54.9951 218.894 54.9227C218.364 54.706 217.93 54.5972 217.594 54.5972C217.256 54.5972 216.966 54.7658 216.726 55.1034C216.557 55.3682 216.515 55.6516 216.599 55.9528C216.684 56.2544 216.907 56.5252 217.268 56.7662C217.436 57.0557 217.858 57.3382 218.533 57.6155C219.207 57.8924 219.984 58.1268 220.864 58.3202C221.743 58.513 222.544 58.6097 223.267 58.6097C224.978 58.6097 226.532 58.2837 227.93 57.6333C229.327 56.9828 230.441 56.0069 231.273 54.706C232.104 53.4047 232.52 51.7662 232.52 49.7905V33.9612C232.52 33.5517 232.387 33.2085 232.122 32.9312C231.857 32.6547 231.508 32.5156 231.074 32.5156Z" fill="#272F2F" />
		<path d="M253.926 33.4098C252.998 32.7229 251.739 32.3797 250.149 32.3797C249.305 32.3797 248.498 32.5306 247.727 32.8313C246.956 33.1329 246.258 33.5363 245.63 34.042C245.004 34.5482 244.486 35.1207 244.076 35.759C244.051 35.8001 244.03 35.8412 244.005 35.8823V26.055C244.005 25.6455 243.872 25.3023 243.607 25.025C243.342 24.7481 242.993 24.6094 242.559 24.6094C242.149 24.6094 241.806 24.7481 241.529 25.025C241.251 25.3023 241.113 25.6455 241.113 26.055V49.8718C241.113 50.2818 241.251 50.6306 241.529 50.9196C241.806 51.2087 242.149 51.3534 242.559 51.3534C242.968 51.3534 243.312 51.2087 243.589 50.9196C243.866 50.6306 244.005 50.2818 244.005 49.8718V39.9694C244.005 39.0542 244.246 38.2291 244.727 37.4937C245.209 36.7592 245.86 36.169 246.679 35.7226C247.498 35.2771 248.402 35.0544 249.39 35.0544C250.45 35.0544 251.287 35.2771 251.901 35.7226C252.516 36.169 252.955 36.7592 253.221 37.4937C253.486 38.2291 253.618 39.0542 253.618 39.9694V49.8718C253.618 50.2818 253.757 50.6306 254.034 50.9196C254.311 51.2087 254.654 51.3534 255.064 51.3534C255.473 51.3534 255.817 51.2087 256.094 50.9196C256.37 50.6306 256.51 50.2818 256.51 49.8718V39.9694C256.51 38.5723 256.31 37.3013 255.913 36.1564C255.516 35.0123 254.852 34.0962 253.926 33.4098Z" fill="#272F2F" />
		<path d="M268.609 36.5453C269.175 35.9794 269.814 35.5694 270.524 35.3168C271.235 35.0637 271.952 34.9372 272.675 34.9372C273.566 34.9372 274.422 35.1305 275.241 35.5152C276.06 35.9009 276.753 36.4496 277.319 37.1598C277.885 37.8709 278.205 38.7203 278.277 39.7079V39.9969H266.917C267 39.5435 267.108 39.1177 267.254 38.732C267.591 37.8411 268.043 37.1117 268.609 36.5453ZM278.656 34.6299C277.849 33.8473 276.934 33.251 275.91 32.8411C274.885 32.4316 273.807 32.2266 272.675 32.2266C271.181 32.2266 269.771 32.6183 268.447 33.4009C267.121 34.1844 266.043 35.3168 265.212 36.7984C264.381 38.28 263.965 40.0693 263.965 42.1654C263.965 44.0448 264.363 45.7015 265.158 47.1341C265.952 48.5681 267.073 49.6948 268.519 50.5134C269.965 51.3329 271.651 51.7424 273.578 51.7424C274.903 51.7424 276.138 51.4589 277.283 50.893C278.427 50.3271 279.349 49.6705 280.048 48.9234C280.433 48.6106 280.626 48.2492 280.626 47.8392C280.626 47.5025 280.505 47.213 280.265 46.9716C280.023 46.7316 279.734 46.6107 279.397 46.6107C279.083 46.6107 278.771 46.719 278.458 46.9357C278.144 47.2733 277.765 47.6043 277.319 47.9293C276.873 48.2548 276.337 48.5256 275.711 48.7427C275.084 48.9594 274.337 49.0677 273.47 49.0677C272.145 49.0677 270.976 48.7605 269.965 48.1464C268.953 47.532 268.163 46.6957 267.597 45.6348C267.105 44.714 266.828 43.6661 266.763 42.4909H279.867C280.252 42.4909 280.59 42.3587 280.879 42.093C281.168 41.8283 281.325 41.5028 281.349 41.1171C281.325 39.7681 281.072 38.5457 280.59 37.4488C280.108 36.3529 279.464 35.413 278.656 34.6299Z" fill="#272F2F" />
		<path d="M299.292 32.6062C298.846 32.3531 298.358 32.2266 297.828 32.2266C296.937 32.2266 296.118 32.3891 295.37 32.7145C294.624 33.0395 293.961 33.4859 293.383 34.0518C292.805 34.6182 292.329 35.2565 291.956 35.9672C291.825 36.2147 291.714 36.465 291.612 36.7171V34.142C291.612 33.7324 291.479 33.3892 291.215 33.1119C290.949 32.8355 290.6 32.6963 290.166 32.6963C289.756 32.6963 289.413 32.8355 289.137 33.1119C288.859 33.3892 288.721 33.7324 288.721 34.142V49.8993C288.721 50.3093 288.859 50.6581 289.137 50.9472C289.413 51.2362 289.756 51.381 290.166 51.381C290.576 51.381 290.92 51.2362 291.196 50.9472C291.473 50.6581 291.612 50.3093 291.612 49.8993L291.612 41.1171C291.612 40.25 291.762 39.4366 292.064 38.6778C292.365 37.9186 292.763 37.2382 293.257 36.6359C293.75 36.034 294.292 35.5694 294.883 35.2444C295.473 34.9189 296.069 34.7564 296.672 34.7564C297.106 34.7564 297.467 34.8232 297.756 34.9554C298.046 35.088 298.346 35.1538 298.659 35.1538C298.997 35.1538 299.298 35.0338 299.563 34.7924C299.828 34.5519 299.961 34.1784 299.961 33.6722C299.961 33.2146 299.738 32.8588 299.292 32.6062Z" fill="#272F2F" />
	</g>
	<g class="cls-s">
		<path d="M165.588 36.0032C165.19 34.8592 164.533 33.943 163.617 33.2566C162.702 32.5698 161.449 32.2266 159.859 32.2266C158.871 32.2266 157.92 32.4316 157.004 32.8411C156.088 33.251 155.281 33.7689 154.582 34.395C153.93 34.9796 153.465 35.5857 153.169 36.2119C152.791 35.0698 152.187 34.1541 151.348 33.4733C150.323 32.6421 148.993 32.2266 147.354 32.2266C146.487 32.2266 145.668 32.3835 144.897 32.6963C144.125 33.0096 143.426 33.4317 142.801 33.9612C142.2 34.4693 141.708 35.0221 141.319 35.618V33.9612C141.319 33.5517 141.186 33.2085 140.921 32.9312C140.656 32.6547 140.307 32.5156 139.873 32.5156C139.463 32.5156 139.12 32.6547 138.843 32.9312C138.566 33.2085 138.428 33.5517 138.428 33.9612V49.7182C138.428 50.1281 138.566 50.4774 138.843 50.7665C139.12 51.056 139.463 51.2002 139.873 51.2002C140.282 51.2002 140.626 51.056 140.903 50.7665C141.179 50.4774 141.319 50.1281 141.319 49.7182V39.8162C141.319 38.9005 141.559 38.0759 142.042 37.3405C142.523 36.606 143.162 36.0158 143.957 35.5694C144.752 35.1239 145.632 34.9007 146.595 34.9007C147.655 34.9007 148.487 35.1239 149.089 35.5694C149.691 36.0158 150.119 36.606 150.372 37.3405C150.625 38.0759 150.751 38.9005 150.751 39.8162V49.7182C150.751 50.1281 150.889 50.4774 151.167 50.7665C151.444 51.056 151.787 51.2002 152.197 51.2002C152.631 51.2002 152.98 51.056 153.245 50.7665C153.51 50.4774 153.643 50.1281 153.643 49.7182V39.9246C153.643 38.9851 153.883 38.1357 154.366 37.3765C154.848 36.6177 155.498 36.0158 156.317 35.5694C157.136 35.1239 158.04 34.9007 159.028 34.9007C160.088 34.9007 160.925 35.1239 161.54 35.5694C162.154 36.0158 162.599 36.6177 162.877 37.3765C163.154 38.1357 163.293 38.9851 163.293 39.9246V49.7182C163.293 50.1281 163.425 50.4774 163.69 50.7665C163.955 51.056 164.305 51.2002 164.738 51.2002C165.147 51.2002 165.491 51.056 165.769 50.7665C166.044 50.4774 166.184 50.1281 166.184 49.7182V39.8522C166.184 38.4308 165.985 37.1481 165.588 36.0032Z" fill="#00AACF" />
		<path d="M104.993 41.6158L109.52 30.5964L114.106 41.6158H104.993ZM111.028 26.7255C110.931 26.4364 110.758 26.2076 110.505 26.0386C110.251 25.8705 109.968 25.786 109.655 25.786C109.342 25.7622 109.059 25.828 108.806 25.9844C108.553 26.1418 108.366 26.3883 108.245 26.7255L98.8852 49.494C98.8128 49.6878 98.7885 49.868 98.8128 50.0366C98.8128 50.3737 98.9212 50.6627 99.1383 50.9041C99.3545 51.1451 99.6921 51.2651 100.15 51.2651C100.414 51.2651 100.668 51.1806 100.909 51.012C101.149 50.8439 101.318 50.6142 101.415 50.3251L103.835 44.4347H115.278L117.715 50.2896C117.835 50.6025 118.016 50.8439 118.256 51.012C118.497 51.1806 118.762 51.2651 119.052 51.2651C119.413 51.2651 119.739 51.1385 120.027 50.8855C120.317 50.6324 120.462 50.2896 120.462 49.8554C120.462 49.663 120.425 49.4702 120.353 49.2778L111.028 26.7255Z" fill="#00AACF" />
		<path d="M128.521 32.2266C128.11 32.2266 127.767 32.3652 127.491 32.6421C127.213 32.9195 127.075 33.2627 127.075 33.6722V49.7182C127.075 50.1281 127.207 50.4774 127.473 50.7665C127.737 51.056 128.087 51.2002 128.521 51.2002C128.93 51.2002 129.274 51.056 129.55 50.7665C129.827 50.4774 129.966 50.1281 129.966 49.7182V33.6722C129.966 33.2627 129.827 32.9195 129.55 32.6421C129.274 32.3652 128.93 32.2266 128.521 32.2266Z" fill="#00AACF" />
		<path d="M128.516 26.3672C127.938 26.3672 127.492 26.4877 127.179 26.7286C126.865 26.9695 126.709 27.3426 126.709 27.8488V28.3549C126.709 28.8606 126.853 29.2347 127.143 29.4751C127.432 29.7161 127.877 29.8365 128.48 29.8365C129.058 29.8365 129.498 29.7161 129.799 29.4751C130.1 29.2347 130.251 28.8606 130.251 28.3549V27.8488C130.251 27.3426 130.106 26.9695 129.817 26.7286C129.527 26.4877 129.094 26.3672 128.516 26.3672Z" fill="#00AACF" />
	</g>
	<path fill-rule="evenodd" clip-rule="evenodd" d="M100.868 98.2554L53.0682 1.47539C52.4206 0.164691 50.8334 -0.373225 49.5223 0.274422C48.2116 0.921602 47.6737 2.5092 48.3213 3.82037L96.1207 100.6C96.7683 101.911 98.3559 102.449 99.6666 101.801C100.977 101.154 101.515 99.5666 100.868 98.2554Z" fill="url(#_LogoGradient1)" class="gradient_1" />
	<path fill-rule="evenodd" clip-rule="evenodd" d="M51.7244 70.4542C50.9689 70.0661 50.0612 70.0661 49.3057 70.4542L37.1344 76.7056L50.5253 49.7052L63.9018 76.7088L51.7244 70.4542ZM42.6999 21.9801C42.2539 21.0798 41.3317 20.5073 40.3269 20.5078C39.3225 20.5083 38.4003 21.0812 37.9548 21.9815L0.275001 98.1648C-0.373113 99.4755 0.163403 101.063 1.47411 101.711C2.78434 102.359 4.37241 101.822 5.02052 100.512L40.3297 29.1229L47.5724 43.7437L28.8172 81.5594C28.3092 82.5834 28.5161 83.8175 29.3299 84.6202C30.1443 85.4229 31.3812 85.6125 32.3982 85.09L50.515 75.7852L68.6319 85.09C69.6489 85.6125 70.8853 85.4233 71.6992 84.6207C72.514 83.818 72.7209 82.5848 72.2133 81.5603L42.6999 21.9801Z" fill="url(#_LogoGradient2)" class="gradient_2" />
	<defs>
		<linearGradient id="_LogoGradient1" x1="-268.698" y1="51.0379" x2="119.275" y2="51.0379" gradientUnits="userSpaceOnUse">
			<stop stop-color="#00ABCF" />
			<stop offset="1" stop-color="#0086C6" />
		</linearGradient>
		<linearGradient id="_LogoGradient2" x1="32.3396" y1="61.247" x2="93.7031" y2="61.247" gradientUnits="userSpaceOnUse">
			<stop stop-color="#00ABCF" />
			<stop offset="1" stop-color="#0086C6" />
		</linearGradient>
	</defs>
</svg>
