<svg viewBox="0 0 1000 294" fill="none" xmlns="http://www.w3.org/2000/svg">
	<path fill-rule="evenodd" clip-rule="evenodd" d="M275.989 288.818L138.678 10.8033C136.935 7.27354 138.383 2.99913 141.913 1.25484C145.443 -0.489461 149.719 0.958575 151.461 4.48995L288.774 282.503C290.517 286.035 289.069 290.309 285.539 292.054C282.01 293.796 277.734 292.348 275.989 288.818Z" fill="var(--logo-gradient_1)" />
	<path fill-rule="evenodd" clip-rule="evenodd" d="M151.023 129.596L105.131 222.13L141.379 203.513C143.415 202.467 145.858 202.467 147.894 203.513L184.158 222.138L115.376 83.2862L13.521 289.224C11.7767 292.752 7.49914 294.199 3.97094 292.453C0.44115 290.707 -1.0053 286.431 0.740579 282.901L108.981 64.0546C110.18 61.629 112.662 60.0875 115.368 60.0859C118.074 60.0844 120.558 61.6259 121.759 64.0514L206.541 235.203C207.908 237.962 207.35 241.285 205.158 243.445C202.965 245.606 199.635 246.117 196.896 244.709L144.636 217.87L92.3772 244.709C89.638 246.117 86.3062 245.606 84.1136 243.445C81.9225 241.282 81.3649 237.958 82.7321 235.2L138.249 123.262C139.999 119.734 144.277 118.294 147.803 120.043C151.332 121.792 152.772 126.07 151.023 129.596Z" fill="var(--logo-gradient_2)" />
	<path d="M485.596 243.379V196.806H500.471C503.329 196.806 505.732 197.13 507.811 197.65C509.889 198.235 511.578 199.014 512.942 200.053C514.241 201.093 515.215 202.392 515.865 203.886C516.515 205.38 516.839 207.069 516.839 208.952C516.839 210.122 516.645 211.226 516.32 212.33C515.93 213.369 515.41 214.344 514.696 215.253C513.981 216.162 513.072 217.007 511.968 217.656C510.863 218.371 509.564 218.956 508.135 219.41C511.513 220.125 514.046 221.359 515.8 223.113C517.554 224.867 518.398 227.205 518.398 230.128C518.398 232.077 518.009 233.895 517.294 235.519C516.58 237.143 515.54 238.507 514.111 239.676C512.747 240.846 510.993 241.755 508.98 242.405C506.966 243.054 504.693 243.379 502.094 243.379H485.596ZM491.896 222.138V238.377H501.965C503.783 238.377 505.277 238.182 506.576 237.793C507.875 237.338 508.915 236.753 509.759 236.039C510.604 235.259 511.253 234.415 511.643 233.376C512.033 232.336 512.228 231.167 512.228 229.998C512.228 227.53 511.318 225.646 509.629 224.282C507.94 222.853 505.407 222.138 501.965 222.138H491.896ZM491.896 217.656H500.211C501.965 217.656 503.523 217.462 504.823 217.072C506.122 216.747 507.226 216.162 508.07 215.448C508.915 214.798 509.564 213.954 509.954 212.98C510.344 212.005 510.539 210.901 510.539 209.732C510.539 207.004 509.759 204.99 508.135 203.691C506.446 202.457 503.913 201.807 500.471 201.807H491.896V217.656Z" fill="var(--logo-neutral)" />
	<path d="M470.361 197.781V202.978H448.016V218.372H466.074V223.309H448.016V239.223H470.361V244.354H441.65V197.781H470.361Z" fill="var(--logo-neutral)" />
	<path d="M363.525 196.806H368.722C369.306 196.806 369.761 197.001 370.151 197.26C370.541 197.52 370.735 197.91 370.93 198.3L380.544 230.648C380.674 231.232 380.869 231.882 380.998 232.531C381.128 233.246 381.258 233.96 381.388 234.675C381.518 233.96 381.713 233.246 381.843 232.531C381.973 231.882 382.168 231.232 382.363 230.648L393.34 198.3C393.47 197.975 393.665 197.65 394.055 197.325C394.444 197.001 394.899 196.806 395.484 196.806H397.302C397.822 196.806 398.277 197.001 398.666 197.26C398.991 197.52 399.251 197.91 399.446 198.3L410.293 230.648C410.683 231.817 411.008 233.116 411.333 234.545C411.463 233.83 411.593 233.116 411.723 232.466C411.787 231.817 411.917 231.232 412.112 230.648L421.791 198.3C421.856 197.91 422.115 197.585 422.505 197.26C422.895 197.001 423.35 196.806 423.869 196.806H428.806L414.256 243.379H408.605L396.848 207.848C396.588 207.199 396.393 206.419 396.133 205.51C396.068 205.964 395.938 206.419 395.873 206.809C395.743 207.199 395.678 207.523 395.549 207.848L383.727 243.379H378.075L363.525 196.806Z" fill="var(--logo-neutral)" />
	<path d="M578.378 63.4712C577.397 64.4107 576.904 65.6163 576.904 67.0865V142.868C576.904 144.26 577.354 145.444 578.256 146.424C579.152 147.407 580.38 147.898 581.933 147.898C583.321 147.898 584.528 147.407 585.55 146.424C586.572 145.444 587.082 144.26 587.082 142.868V67.0865C587.082 65.6163 586.594 64.4107 585.612 63.4712C584.629 62.5301 583.444 62.0596 582.055 62.0596C580.585 62.0596 579.357 62.5301 578.378 63.4712ZM634.968 63.4712C633.943 64.4107 633.436 65.6163 633.436 67.0865V142.868C633.436 144.26 633.926 145.444 634.907 146.424C635.889 147.407 637.072 147.898 638.463 147.898C639.935 147.898 641.161 147.407 642.14 146.424C643.121 145.444 643.614 144.26 643.614 142.868V67.0865C643.614 65.6163 643.142 64.4107 642.202 63.4712C641.261 62.5301 640.057 62.0596 638.585 62.0596C637.194 62.0596 635.989 62.5301 634.968 63.4712ZM581.196 109.024H638.585L638.707 99.4598H581.565L581.196 109.024ZM683.954 88.4253C683.954 87.0359 683.484 85.8714 682.544 84.9288C681.602 83.9909 680.439 83.5187 679.049 83.5187C677.658 83.5187 676.494 83.9909 675.555 84.9288C674.614 85.8714 674.143 87.0359 674.143 88.4253V142.868C674.143 144.26 674.593 145.444 675.494 146.424C676.391 147.407 677.578 147.898 679.049 147.898C680.439 147.898 681.602 147.407 682.544 146.424C683.484 145.444 683.954 144.26 683.954 142.868V88.4253ZM683.524 74.0764C684.547 73.2605 685.059 71.9915 685.059 70.2757V68.5584C685.059 66.841 684.566 65.5767 683.585 64.7592C682.605 63.9417 681.133 63.533 679.172 63.533C677.21 63.533 675.697 63.9417 674.636 64.7592C673.573 65.5767 673.042 66.841 673.042 68.5584V70.2757C673.042 71.9915 673.531 73.2605 674.514 74.0764C675.494 74.8955 677.006 75.3027 679.049 75.3027C681.011 75.3027 682.503 74.8955 683.524 74.0764ZM723.44 87.1373C718.942 89.9557 715.365 93.8625 712.708 98.8483C710.051 103.836 708.723 109.556 708.723 116.016C708.723 122.391 710.051 128.074 712.708 133.058C715.365 138.045 718.961 141.969 723.5 144.832C728.037 147.695 733.166 149.122 738.89 149.122C741.588 149.122 744.263 148.693 746.922 147.836C749.577 146.977 751.988 145.792 754.154 144.279C756.32 142.766 758.142 141.03 759.614 139.067C761.082 137.107 762.064 134.979 762.556 132.69L761.206 132.077V143.481C761.206 149.449 759.366 154.252 755.689 157.89C752.011 161.526 746.694 163.346 739.748 163.346C737.784 163.346 735.781 163.121 733.739 162.673C731.695 162.221 729.896 161.71 728.343 161.139C726.79 160.566 725.604 160.159 724.786 159.913C722.987 159.178 721.518 158.809 720.374 158.809C719.225 158.809 718.245 159.381 717.43 160.526C716.855 161.424 716.713 162.384 717.001 163.408C717.286 164.43 718.042 165.349 719.27 166.166C719.84 167.148 721.271 168.108 723.562 169.048C725.849 169.987 728.484 170.784 731.47 171.44C734.454 172.093 737.172 172.421 739.623 172.421C745.428 172.421 750.702 171.317 755.444 169.11C760.184 166.903 763.966 163.592 766.786 159.178C769.606 154.762 771.017 149.203 771.017 142.5V88.7913C771.017 87.4018 770.567 86.239 769.666 85.2963C768.768 84.36 767.584 83.8863 766.111 83.8863C764.72 83.8863 763.555 84.36 762.617 85.2963C761.675 86.239 761.206 87.4018 761.206 88.7913V99.4598L763.658 100.933C763.658 99.1335 763.025 97.2117 761.759 95.168C760.488 93.1259 758.733 91.1645 756.486 89.2824C754.237 87.4018 751.6 85.8714 748.577 84.6848C745.551 83.5013 742.24 82.9072 738.642 82.9072C733.004 82.9072 727.933 84.3156 723.44 87.1373ZM751.274 95.0444C754.542 97.0897 757.117 99.9113 759 103.508C760.878 107.106 761.819 111.274 761.819 116.016C761.819 120.673 760.878 124.802 759 128.398C757.117 131.998 754.542 134.837 751.274 136.922C748.002 139.005 744.241 140.048 739.994 140.048C735.74 140.048 731.979 138.988 728.712 136.86C725.439 134.736 722.864 131.855 720.987 128.215C719.103 124.579 718.164 120.51 718.164 116.016C718.164 111.356 719.103 107.229 720.987 103.63C722.864 100.033 725.439 97.1927 728.712 95.1062C731.979 93.0213 735.74 91.9804 739.994 91.9804C744.241 91.9804 748.002 93.0039 751.274 95.0444ZM822.641 85.0523C820.021 86.0758 817.652 87.443 815.528 89.1588C813.402 90.8762 811.642 92.8185 810.254 94.9858C808.863 97.1515 807.966 99.2966 807.556 101.423L810.008 98.7231V62.0596C810.008 60.6702 809.56 59.5073 808.661 58.5647C807.76 57.6268 806.575 57.1562 805.103 57.1562C803.714 57.1562 802.548 57.6268 801.61 58.5647C800.67 59.5073 800.2 60.6702 800.2 62.0596V142.868C800.2 144.26 800.67 145.444 801.61 146.424C802.548 147.407 803.714 147.898 805.103 147.898C806.493 147.898 807.66 147.407 808.598 146.424C809.538 145.444 810.008 144.26 810.008 142.868V109.27C810.008 106.165 810.827 103.367 812.462 100.87C814.096 98.3778 816.304 96.3768 819.084 94.8606C821.863 93.3492 824.927 92.5919 828.28 92.5919C831.878 92.5919 834.72 93.3492 836.802 94.8606C838.888 96.3768 840.379 98.3778 841.277 100.87C842.179 103.367 842.629 106.165 842.629 109.27V142.868C842.629 144.26 843.097 145.444 844.039 146.424C844.976 147.407 846.142 147.898 847.533 147.898C848.923 147.898 850.087 147.407 851.028 146.424C851.966 145.444 852.437 144.26 852.437 142.868V109.27C852.437 104.531 851.764 100.217 850.415 96.334C849.064 92.4509 846.817 89.3442 843.669 87.0137C840.523 84.6848 836.252 83.5187 830.856 83.5187C827.994 83.5187 825.252 84.0321 822.641 85.0523ZM922.882 146.242C926.765 144.32 929.893 142.093 932.263 139.558C933.57 138.497 934.226 137.272 934.226 135.881C934.226 134.736 933.817 133.753 933.001 132.936C932.18 132.121 931.2 131.71 930.057 131.71C928.994 131.71 927.931 132.077 926.87 132.815C925.807 133.961 924.517 135.084 923.006 136.185C921.491 137.289 919.676 138.208 917.549 138.947C915.422 139.682 912.89 140.048 909.946 140.048C905.449 140.048 901.485 139.005 898.052 136.922C894.618 134.837 891.941 131.998 890.021 128.398C888.098 124.802 887.139 120.635 887.139 115.89C887.139 111.641 887.711 108.002 888.856 104.978C889.999 101.957 891.531 99.482 893.454 97.5603C895.374 95.6385 897.54 94.2475 899.954 93.3904C902.364 92.5317 904.796 92.1024 907.25 92.1024C910.271 92.1024 913.174 92.7567 915.954 94.0653C918.733 95.3724 921.084 97.2355 923.006 99.6452C924.926 102.056 926.011 104.937 926.255 108.291V110.985L928.216 109.27H881.008L883.213 117.731H931.65C932.958 117.731 934.102 117.281 935.084 116.382C936.067 115.485 936.596 114.379 936.678 113.072C936.596 108.493 935.737 104.346 934.102 100.626C932.469 96.9075 930.281 93.7168 927.545 91.0615C924.802 88.4047 921.697 86.3816 918.224 84.9921C914.747 83.6027 911.092 82.9072 907.25 82.9072C902.18 82.9072 897.396 84.2348 892.901 86.8901C888.405 89.5485 884.748 93.3904 881.928 98.419C879.107 103.444 877.697 109.515 877.697 116.627C877.697 123.005 879.045 128.627 881.743 133.487C884.441 138.354 888.243 142.175 893.148 144.954C898.052 147.735 903.774 149.122 910.316 149.122C914.81 149.122 919.001 148.162 922.882 146.242ZM970.214 146.424C971.155 145.444 971.627 144.26 971.627 142.868V113.072C971.627 110.128 972.134 107.37 973.159 104.796C974.18 102.22 975.529 99.9113 977.204 97.866C978.88 95.8223 980.718 94.2475 982.724 93.1449C984.725 92.0406 986.749 91.4909 988.795 91.4909C990.263 91.4909 991.491 91.7174 992.472 92.1642C993.453 92.6157 994.474 92.8391 995.539 92.8391C996.68 92.8391 997.703 92.4304 998.601 91.6113C999.503 90.797 999.953 89.5264 999.953 87.8106C999.953 86.258 999.194 85.0523 997.683 84.1952C996.171 83.3366 994.514 82.9072 992.716 82.9072C989.691 82.9072 986.911 83.457 984.379 84.5628C981.844 85.6639 979.598 87.1785 977.635 89.0986C975.674 91.0219 974.058 93.1861 972.79 95.5973C971.521 98.0086 970.645 100.483 970.154 103.015L971.627 105.591V89.4059C971.627 88.0165 971.176 86.8505 970.276 85.911C969.378 84.9715 968.193 84.4994 966.719 84.4994C965.33 84.4994 964.165 84.9715 963.227 85.911C962.285 86.8505 961.814 88.0165 961.814 89.4059V142.868C961.814 144.26 962.285 145.444 963.227 146.424C964.165 147.407 965.33 147.898 966.719 147.898C968.109 147.898 969.275 147.407 970.214 146.424Z" fill="var(--logo-neutral)" />
	<path d="M352.361 75.0537L381.545 145.195C381.953 146.256 382.568 147.075 383.384 147.646C384.2 148.219 385.101 148.504 386.082 148.504C387.308 148.504 388.413 148.075 389.393 147.216C390.374 146.358 390.865 145.195 390.865 143.723C390.865 143.07 390.741 142.416 390.496 141.762L358.859 65.2438C358.531 64.2631 357.94 63.4868 357.082 62.9117C356.223 62.3429 355.261 62.0546 354.2 62.0546C353.137 61.9754 352.177 62.1988 351.318 62.7295C350.459 63.2634 349.826 64.0983 349.417 65.2438L317.658 142.495C317.414 143.151 317.33 143.766 317.414 144.336C317.414 145.481 317.78 146.462 318.517 147.278C319.252 148.097 320.396 148.504 321.95 148.504C322.849 148.504 323.707 148.219 324.525 147.646C325.341 147.075 325.914 146.297 326.242 145.317L355.059 75.1757L352.361 75.0537ZM374.8 125.328L372.963 115.763H336.541L332.373 125.328H374.8ZM423.115 88.7878C423.115 87.3984 422.643 86.234 421.703 85.2913C420.764 84.3534 419.599 83.8829 418.21 83.8829C416.819 83.8829 415.653 84.3534 414.715 85.2913C413.774 86.234 413.305 87.3984 413.305 88.7878V143.232C413.305 144.623 413.753 145.808 414.653 146.787C415.551 147.769 416.738 148.26 418.21 148.26C419.599 148.26 420.764 147.769 421.703 146.787C422.643 145.808 423.115 144.623 423.115 143.232V88.7878ZM422.685 74.439C423.706 73.6246 424.217 72.354 424.217 70.6383V68.9209C424.217 67.2035 423.728 65.9393 422.746 65.1218C421.765 64.3027 420.293 63.8955 418.332 63.8955C416.37 63.8955 414.856 64.3027 413.794 65.1218C412.731 65.9393 412.201 67.2035 412.201 68.9209V70.6383C412.201 72.354 412.692 73.6246 413.671 74.439C414.653 75.2565 416.166 75.6668 418.21 75.6668C420.171 75.6668 421.662 75.2565 422.685 74.439ZM473.756 85.4767C471.139 86.5397 468.769 87.9703 466.645 89.7685C464.52 91.5667 462.782 93.5296 461.434 95.6525C460.084 97.7818 459.244 99.9063 458.92 102.029L461.618 99.0857V89.7685C461.618 88.3791 461.166 87.2131 460.268 86.2736C459.368 85.3357 458.184 84.862 456.713 84.862C455.322 84.862 454.157 85.3357 453.218 86.2736C452.277 87.2131 451.808 88.3791 451.808 89.7685V143.232C451.808 144.623 452.277 145.808 453.218 146.787C454.157 147.769 455.322 148.26 456.713 148.26C458.101 148.26 459.267 147.769 460.208 146.787C461.146 145.808 461.618 144.623 461.618 143.232V109.634C461.618 106.527 462.434 103.729 464.07 101.232C465.703 98.7419 467.871 96.7394 470.569 95.2232C473.268 93.7118 476.25 92.9545 479.52 92.9545C483.116 92.9545 485.936 93.7118 487.982 95.2232C490.024 96.7394 491.477 98.7419 492.334 101.232C493.192 103.729 493.622 106.527 493.622 109.634V143.232C493.622 144.623 494.091 145.808 495.032 146.787C495.971 147.769 497.136 148.26 498.527 148.26C499.998 148.26 501.182 147.769 502.083 146.787C502.982 145.808 503.432 144.623 503.432 143.232V110.001C503.432 106.812 504.249 103.932 505.884 101.356C507.519 98.7815 509.728 96.7394 512.508 95.2232C515.284 93.7118 518.349 92.9545 521.703 92.9545C525.301 92.9545 528.142 93.7118 530.225 95.2232C532.312 96.7394 533.823 98.7815 534.762 101.356C535.7 103.932 536.172 106.812 536.172 110.001V143.232C536.172 144.623 536.621 145.808 537.522 146.787C538.419 147.769 539.606 148.26 541.079 148.26C542.468 148.26 543.631 147.769 544.572 146.787C545.512 145.808 545.982 144.623 545.982 143.232V109.754C545.982 104.932 545.309 100.58 543.959 96.6966C542.611 92.8135 540.382 89.7067 537.275 87.3762C534.168 85.0473 529.918 83.8829 524.525 83.8829C521.169 83.8829 517.942 84.5784 514.835 85.9678C511.729 87.3588 508.989 89.1158 506.621 91.2387C504.249 93.3664 502.573 95.5733 501.592 97.861L500.734 100.07H502.573C501.428 94.919 499.119 90.933 495.646 88.1129C492.169 85.2913 487.654 83.8829 482.095 83.8829C479.152 83.8829 476.372 84.4152 473.756 85.4767Z" fill="var(--logo-secondary)" />
	<defs>
		<linearGradient id="_LogoGradient1" x1="318.816" y1="84.9981" x2="84.5474" y2="-52.4461" gradientUnits="userSpaceOnUse">
			<stop stop-color="#0D7DBC" />
			<stop offset="1" stop-color="#0EACBB" />
		</linearGradient>
		<linearGradient id="_LogoGradient2" x1="304.684" y1="68.3095" x2="67.2188" y2="204.858" gradientUnits="userSpaceOnUse">
			<stop stop-color="#0D7DBC" />
			<stop offset="1" stop-color="#0EACBB" />
		</linearGradient>
	</defs>
</svg>
