<svg viewBox="0 0 2677 911">
	<path fill="var(--logo-neutral)" d="M2332.172 555.133c-1.229 0-2.012.545-2.333 1.65l-37.683 121.308a41.994 41.994 0 00-.88 3.258c-.254 1.13-.512 2.346-.77 3.642-.521-2.592-1.104-4.892-1.75-6.9l-42.054-121.308c-.325-1.105-1.038-1.65-2.138-1.65h-1.262c-1.23 0-2.009.545-2.33 1.65l-42.058 121.308a59.7 59.7 0 00-.92 3.304 79.74 79.74 0 00-.826 3.692 71.504 71.504 0 00-1.654-6.996l-37.688-121.308c-.32-1.105-1.033-1.65-2.133-1.65h-4.367l43.221 136.558h4.663l43.508-126.067a28.852 28.852 0 001.071-3.883 27.67 27.67 0 001.07 3.883l43.313 126.067h4.759l43.225-136.558h-3.984zm55.842 131.991v-62.45h63.425v-4.466h-63.425v-60.513h75.28v-4.562h-80.617V691.69h80.616l.192-4.567h-75.47zm132.384.196v-62.737h36.908c6.083 0 11.57.712 16.462 2.129 4.892 1.429 9.034 3.462 12.434 6.12 3.4 2.659 6.02 5.859 7.862 9.617 1.85 3.754 2.771 8 2.771 12.721 0 10.492-3.416 18.475-10.25 23.946-6.829 5.47-16.62 8.204-29.379 8.204h-36.808zm31.662-127.912c13.15 0 22.904 2.62 29.283 7.87 6.375 5.238 9.567 12.75 9.567 22.53 0 3.558-.691 7.17-2.087 10.829-1.392 3.658-3.63 6.962-6.7 9.904-3.08 2.95-7.03 5.346-11.85 7.187-4.83 1.842-10.667 2.767-17.534 2.767h-32.341v-61.087h31.662zm-37.004-4.275V691.69h42.15c7.125 0 13.47-.808 19.042-2.425 5.562-1.62 10.275-3.983 14.133-7.092 3.846-3.108 6.78-6.908 8.788-11.412 2-4.5 3.012-9.667 3.012-15.492 0-4.725-.812-9.017-2.43-12.87a28.222 28.222 0 00-7.045-10c-3.07-2.817-6.813-5.117-11.217-6.9-4.404-1.776-9.391-2.963-14.954-3.542 4.467-.846 8.53-2.3 12.192-4.375 3.654-2.067 6.758-4.567 9.32-7.48a33.856 33.856 0 005.976-9.658 29.34 29.34 0 002.133-11.03c0-10.94-3.63-19.39-10.875-25.35-7.254-5.953-18.325-8.932-33.22-8.932h-37.005zM1832.701 288.507c-3.658 0-6.72 1.238-9.191 3.709-2.471 2.475-3.709 5.537-3.709 9.191v143.188c0 3.658 1.175 6.77 3.55 9.35 2.363 2.58 5.48 3.87 9.35 3.87 3.654 0 6.717-1.29 9.192-3.87 2.47-2.58 3.708-5.692 3.708-9.35V301.407c0-3.654-1.237-6.716-3.708-9.191-2.475-2.471-5.538-3.709-9.192-3.709zM1726.28 232.07c-3.658 0-6.825 1.237-9.512 3.708-2.692 2.475-4.03 5.646-4.03 9.513v85.141H1590.83v-85.141c0-3.867-1.291-7.038-3.866-9.513-2.584-2.47-5.7-3.708-9.355-3.708-3.875 0-7.095 1.237-9.675 3.708-2.579 2.475-3.87 5.646-3.87 9.513v199.304c0 3.658 1.175 6.77 3.55 9.35 2.362 2.58 5.587 3.87 9.675 3.87 3.65 0 6.82-1.29 9.512-3.87 2.688-2.58 4.03-5.692 4.03-9.35v-89.008h121.908v89.008c0 3.658 1.283 6.77 3.866 9.35 2.584 2.58 5.696 3.87 9.354 3.87 3.867 0 7.096-1.29 9.675-3.87 2.58-2.58 3.871-5.692 3.871-9.35V245.291c0-3.867-1.241-7.038-3.708-9.513-2.475-2.47-5.646-3.708-9.517-3.708zM1833.026 235.94c-5.162 0-9.141 1.08-11.933 3.226-2.796 2.15-4.192 5.483-4.192 9.995v4.517c0 4.513 1.284 7.85 3.867 9.996 2.583 2.154 6.558 3.225 11.933 3.225 5.163 0 9.08-1.07 11.771-3.225 2.688-2.146 4.033-5.483 4.033-9.996v-4.517c0-4.512-1.291-7.845-3.87-9.995-2.58-2.146-6.45-3.225-11.609-3.225zM2042.972 406.54c-4.95 9.467-11.72 16.93-20.32 22.413-8.6 5.48-18.492 8.221-29.667 8.221-11.184 0-21.075-2.792-29.675-8.383-8.6-5.584-15.371-13.163-20.313-22.734-4.95-9.562-7.42-20.262-7.42-32.087 0-12.254 2.47-23.108 7.42-32.571 4.942-9.458 11.713-16.933 20.313-22.417 8.6-5.483 18.491-8.22 29.675-8.22 11.175 0 21.066 2.687 29.666 8.062 8.6 5.375 15.371 12.792 20.321 22.25 4.942 9.463 7.417 20.43 7.417 32.896 0 12.254-2.475 23.112-7.417 32.57zm18.704-117.066c-3.658 0-6.725 1.242-9.191 3.708-2.475 2.475-3.709 5.538-3.709 9.192v14.663c-3.191-4.613-7.291-9.08-12.416-13.371-5.917-4.946-12.85-8.975-20.8-12.096-7.963-3.113-16.667-4.675-26.125-4.675-14.838 0-28.167 3.708-39.992 11.125-11.83 7.417-21.233 17.687-28.217 30.8-6.987 13.117-10.479 28.167-10.479 45.15 0 16.77 3.492 31.717 10.48 44.82 6.983 13.122 16.445 23.438 28.374 30.963 11.938 7.53 25.43 11.288 40.48 11.288 7.091 0 14.133-1.13 21.125-3.388 6.979-2.258 13.325-5.366 19.025-9.35 5.695-3.979 10.483-8.546 14.35-13.708 1.65-2.196 3.012-4.488 4.195-6.842v18.459c0 15.691-4.837 28.316-14.512 37.891-9.675 9.563-23.654 14.346-41.925 14.346-5.163 0-10.438-.587-15.808-1.77-5.371-1.188-10.105-2.534-14.184-4.03-4.087-1.508-7.208-2.583-9.354-3.229-4.733-1.933-8.604-2.904-11.608-2.904-3.017 0-5.596 1.504-7.746 4.516-1.504 2.363-1.88 4.892-1.125 7.58.75 2.691 2.741 5.108 5.966 7.258 1.5 2.583 5.267 5.104 11.288 7.58 6.017 2.47 12.95 4.562 20.8 6.287 7.846 1.72 14.992 2.583 21.446 2.583 15.267 0 29.129-2.908 41.604-8.712 12.467-5.805 22.408-14.513 29.83-26.121 7.42-11.613 11.128-26.234 11.128-43.863v-141.25c0-3.654-1.187-6.717-3.55-9.192-2.366-2.466-5.479-3.708-9.35-3.708zM2265.656 297.699c-8.28-6.13-19.517-9.192-33.704-9.192-7.525 0-14.73 1.346-21.605 4.03-6.883 2.691-13.116 6.291-18.712 10.804-5.588 4.516-10.208 9.625-13.867 15.32-.229.367-.416.734-.641 1.1V232.07c0-3.654-1.184-6.717-3.55-9.192-2.363-2.47-5.48-3.708-9.35-3.708-3.659 0-6.721 1.237-9.188 3.708-2.48 2.475-3.713 5.538-3.713 9.192v212.525c0 3.658 1.234 6.77 3.713 9.35 2.467 2.58 5.53 3.87 9.187 3.87 3.655 0 6.717-1.29 9.192-3.87 2.471-2.58 3.709-5.692 3.709-9.35v-88.363c0-8.166 2.15-15.529 6.445-22.091 4.305-6.554 10.109-11.821 17.417-15.804 7.308-3.975 15.375-5.963 24.192-5.963 9.458 0 16.933 1.988 22.412 5.963 5.48 3.983 9.404 9.25 11.771 15.804 2.367 6.562 3.55 13.925 3.55 22.091v88.363c0 3.658 1.233 6.77 3.704 9.35 2.475 2.58 5.538 3.87 9.196 3.87 3.65 0 6.717-1.29 9.192-3.87 2.462-2.58 3.708-5.692 3.708-9.35v-88.363c0-12.466-1.78-23.808-5.32-34.025-3.55-10.208-9.472-18.383-17.738-24.508zM2396.585 325.432c5.05-5.05 10.75-8.708 17.092-10.962 6.341-2.258 12.741-3.388 19.191-3.388 7.95 0 15.584 1.725 22.896 5.159 7.309 3.441 13.492 8.337 18.546 14.675 5.05 6.346 7.9 13.925 8.546 22.737v2.58h-101.371c.742-4.046 1.704-7.846 3.008-11.288 3.009-7.95 7.038-14.458 12.092-19.513zm89.654-17.091c-7.204-6.984-15.37-12.304-24.508-15.963-9.142-3.654-18.758-5.483-28.863-5.483-13.333 0-25.912 3.496-37.733 10.479-11.825 6.992-21.446 17.096-28.867 30.317-7.412 13.22-11.125 29.187-11.125 47.891 0 16.771 3.55 31.555 10.646 44.338 7.088 12.796 17.092 22.85 29.992 30.154 12.9 7.313 27.946 10.967 45.146 10.967 11.82 0 22.846-2.53 33.058-7.58 10.208-5.05 18.433-10.908 24.67-17.574 3.438-2.792 5.163-6.017 5.163-9.675 0-3.005-1.083-5.588-3.225-7.742-2.154-2.142-4.733-3.22-7.745-3.22-2.796 0-5.588.966-8.38 2.9-2.795 3.012-6.183 5.966-10.158 8.866-3.983 2.904-8.762 5.32-14.354 7.258-5.592 1.933-12.258 2.9-19.992 2.9-11.829 0-22.254-2.742-31.283-8.22-9.03-5.484-16.075-12.947-21.125-22.413-4.392-8.217-6.867-17.567-7.442-28.054h116.93c3.433 0 6.45-1.18 9.033-3.55 2.575-2.363 3.975-5.267 4.191-8.709-.216-12.037-2.475-22.946-6.775-32.733-4.3-9.78-10.05-18.167-17.254-25.154zM2670.71 290.282c-3.979-2.258-8.333-3.387-13.062-3.387-7.954 0-15.267 1.45-21.934 4.354a58.54 58.54 0 00-17.733 11.933 68.053 68.053 0 00-12.737 17.092c-1.163 2.208-2.155 4.442-3.067 6.692v-22.98c0-3.654-1.188-6.716-3.546-9.191-2.367-2.467-5.483-3.708-9.354-3.708-3.659 0-6.721 1.241-9.188 3.708-2.475 2.475-3.712 5.537-3.712 9.192v140.608c0 3.658 1.237 6.77 3.712 9.35 2.467 2.58 5.53 3.87 9.188 3.87 3.654 0 6.72-1.29 9.192-3.87 2.47-2.58 3.708-5.692 3.708-9.35l.004-78.367c0-7.737 1.338-14.996 4.025-21.766 2.688-6.775 6.238-12.846 10.646-18.221 4.404-5.371 9.242-9.517 14.512-12.417 5.267-2.904 10.588-4.354 15.963-4.354 3.87 0 7.096.596 9.675 1.775a19.126 19.126 0 008.058 1.77c3.013 0 5.7-1.07 8.067-3.224 2.362-2.146 3.55-5.48 3.55-9.996 0-4.083-1.992-7.258-5.967-9.513z">
	</path>
	<path fill="var(--logo-secondary)" d="M1147.076 235.94c-5.154 0-9.138 1.076-11.93 3.226-2.795 2.15-4.191 5.479-4.191 9.995v4.517c0 4.513 1.287 7.85 3.87 9.996 2.58 2.15 6.555 3.225 11.934 3.225 5.158 0 9.08-1.075 11.77-3.225 2.684-2.146 4.03-5.483 4.03-9.996v-4.517c0-4.516-1.287-7.845-3.87-9.995-2.584-2.15-6.45-3.225-11.613-3.225zM1477.48 322.207c-3.554-10.208-9.408-18.383-17.583-24.508-8.171-6.13-19.346-9.192-33.538-9.192-8.816 0-17.304 1.83-25.475 5.484-8.175 3.658-15.375 8.279-21.608 13.866-5.821 5.217-9.975 10.625-12.613 16.213-3.37-10.192-8.762-18.363-16.25-24.438-9.145-7.416-21.016-11.125-35.637-11.125-7.738 0-15.05 1.4-21.93 4.192-6.883 2.796-13.12 6.563-18.704 11.288-5.358 4.533-9.745 9.466-13.22 14.783v-14.783c0-3.655-1.188-6.717-3.55-9.192-2.367-2.467-5.484-3.708-9.35-3.708-3.659 0-6.725 1.241-9.192 3.708-2.475 2.475-3.708 5.537-3.708 9.192V444.59c0 3.658 1.233 6.775 3.708 9.354 2.467 2.583 5.533 3.87 9.192 3.87 3.65 0 6.716-1.287 9.191-3.87 2.463-2.58 3.709-5.696 3.709-9.354v-88.359c0-8.17 2.141-15.529 6.45-22.091 4.295-6.554 9.995-11.821 17.091-15.804 7.096-3.975 14.942-5.967 23.542-5.967 9.458 0 16.875 1.992 22.254 5.967 5.367 3.983 9.188 9.25 11.442 15.804 2.262 6.562 3.387 13.92 3.387 22.091v88.359c0 3.658 1.234 6.775 3.713 9.354 2.47 2.583 5.529 3.87 9.192 3.87 3.87 0 6.983-1.287 9.35-3.87 2.366-2.58 3.55-5.696 3.55-9.354v-87.392c0-8.383 2.141-15.962 6.45-22.737 4.3-6.771 10.1-12.142 17.412-16.125 7.304-3.975 15.37-5.967 24.192-5.967 9.458 0 16.929 1.992 22.412 5.967 5.48 3.983 9.454 9.354 11.93 16.125 2.47 6.775 3.712 14.354 3.712 22.737v87.392c0 3.658 1.18 6.775 3.542 9.354 2.366 2.583 5.487 3.87 9.358 3.87 3.65 0 6.717-1.287 9.192-3.87 2.462-2.58 3.704-5.696 3.704-9.354v-88.038c0-12.683-1.775-24.129-5.317-34.346zM936.813 372.357l40.396-98.329 40.917 98.33h-81.313zm53.85-132.87c-.862-2.58-2.412-4.621-4.67-6.13-2.26-1.5-4.792-2.254-7.58-2.254-2.796-.212-5.32.375-7.58 1.771-2.257 1.404-3.924 3.604-5.003 6.612l-83.521 203.171c-.646 1.73-.863 3.338-.646 4.842 0 3.008.967 5.588 2.904 7.742 1.93 2.15 4.942 3.22 9.03 3.22 2.358 0 4.616-.754 6.77-2.258 2.146-1.5 3.654-3.55 4.517-6.129l21.596-52.562h102.108l21.742 52.245c1.075 2.792 2.687 4.946 4.833 6.446 2.15 1.504 4.517 2.259 7.1 2.259 3.22 0 6.13-1.13 8.704-3.388 2.584-2.258 3.875-5.317 3.875-9.192 0-1.716-.329-3.437-.97-5.154l-83.209-201.242zM1146.759 288.507c-3.662 0-6.725 1.238-9.192 3.709-2.475 2.475-3.708 5.537-3.708 9.191v143.184c0 3.658 1.18 6.775 3.546 9.354 2.362 2.583 5.483 3.87 9.354 3.87 3.65 0 6.717-1.287 9.183-3.87 2.475-2.58 3.717-5.696 3.717-9.354V301.407c0-3.654-1.242-6.716-3.717-9.191-2.466-2.471-5.533-3.709-9.183-3.709z">
	</path>
	<g transform="matrix(1,0,0,1,-0.000238649,-1.6429)">
		<g transform="matrix(4.16667,0,0,4.16667,0,0)">
			<path fill="var(--logo-gradient_1)" d="M215.992,210.818L113.624,3.554C112.237,0.747 108.838,-0.405 106.03,0.982C103.223,2.368 102.071,5.768 103.458,8.576L205.825,215.84C207.212,218.647 210.612,219.798 213.419,218.412C216.226,217.026 217.378,213.626 215.992,210.818Z" />
			<path fill="var(--logo-gradient_2)" d="M110.773,151.471C109.155,150.64 107.211,150.64 105.593,151.471L79.527,164.859L108.205,107.035L136.852,164.866L110.773,151.471ZM91.446,47.659C90.491,45.731 88.516,44.505 86.364,44.506C84.213,44.507 82.238,45.734 81.284,47.662L0.589,210.816C-0.799,213.623 0.35,217.023 3.157,218.411C5.963,219.799 9.364,218.649 10.752,215.842L86.37,62.956L101.881,94.268L61.715,175.254C60.627,177.447 61.07,180.09 62.813,181.809C64.557,183.528 67.206,183.934 69.384,182.815L108.183,162.888L146.982,182.815C149.16,183.934 151.808,183.529 153.551,181.81C155.296,180.091 155.739,177.45 154.652,175.256L91.446,47.659Z" />
		</g>
	</g>
	<defs>
		<linearGradient id="_LogoGradient1" x1="0" y1="0" x2="1" y2="0" gradientUnits="userSpaceOnUse" gradientTransform="matrix(830.882,0,0,830.882,-575.469,109.697)">
			<stop offset="0" style="stop-color:rgb(0, 171, 207);
	stop-opacity:1" />
			<stop offset="1" style="stop-color:rgb(0, 134, 198);
	stop-opacity:1" />
		</linearGradient>
		<linearGradient id="_LogoGradient2" x1="0" y1="0" x2="1" y2="0" gradientUnits="userSpaceOnUse" gradientTransform="matrix(131.416,0,0,131.416,69.2585,131.753)">
			<stop offset="0" style="stop-color:rgb(0, 171, 207);
	stop-opacity:1" />
			<stop offset="1" style="stop-color:rgb(0, 134, 198);
	stop-opacity:1" />
		</linearGradient>
	</defs>
</svg>
