<svg fill="none" viewBox="0 0 632 185">
	<path fill="var(--logo-gradient)" d="M174.169 181.969l-86.6-175.5c-1.1-2.2-.2-4.9 2-6 2.2-1.1 4.9-.2 6 2l86.7 175.5c1.1 2.2.2 4.9-2 6-2.3 1.1-5 .2-6.1-2z" />
	<path fill="var(--logo-gradient)" d="M95.27 81.17l-29 58.4 22.9-11.8c1.3-.7 2.8-.7 4.1 0l22.899 11.8-43.4-87.6-64.3 130c-1.1 2.2-3.8 3.1-6 2s-3.1-3.8-2-6l68.3-138.1c.8-1.5 2.3-2.5 4-2.5 1.7 0 3.3 1 4 2.5l53.5 107.999c.9 1.7.5 3.801-.9 5.201-1.4 1.4-3.5 1.7-5.2.799l-33-16.899-33 16.899c-1.7.901-3.8.601-5.2-.799-1.4-1.4-1.7-3.501-.9-5.201l35-70.7c1.1-2.2 3.8-3.1 6-2 2.4 1.1 3.3 3.8 2.2 6z" />
	<path fill="var(--logo-neutral)" d="M513.469 124.47v27.3l-19.9-26.9-.2-.2c-.1 0-.2-.1-.3-.1h-.5v29.1h1v-26.5-.4-.4l20 26.999c.1.2.3.201.5.201h.5v-29.1h-1.1zm-40 16.3v.599c0 .1 0 .201.1.201s.2.1.2.1h6.1v8.5c-.7.4-1.4.8-2.1 1.1l-2.1.9c-.7.2-1.5.4-2.3.5-.8.1-1.7.199-2.7.199-2.1 0-4-.3-5.7-1-1.7-.6-3.1-1.599-4.3-2.799-1.2-1.2-2.1-2.7-2.7-4.4-.6-1.7-.9-3.701-.9-5.801 0-2.2.3-4.099.9-5.799.6-1.7 1.5-3.2 2.7-4.4 1.2-1.2 2.5-2.1 4.2-2.8 1.6-.6 3.5-1 5.5-1 1.6 0 2.9.2 4 .5s2 .6 2.7 1c.7.4 1.2.7 1.6 1 .4.3.6.5.8.5.2.1.4 0 .5-.2l.3-.4c-.6-.6-1.3-1.1-2-1.5-.7-.4-1.4-.8-2.2-1.1-.8-.3-1.6-.5-2.6-.6-.9-.1-1.9-.2-3-.2-2.2 0-4.2.3-6 1-1.8.7-3.3 1.7-4.6 3-1.3 1.3-2.2 2.9-2.9 4.7-.7 1.8-1 3.9-1 6.2 0 2.3.3 4.3 1 6.2.7 1.8 1.7 3.4 2.9 4.7 1.3 1.3 2.8 2.3 4.6 3 1.8.7 3.9 1 6.1 1 2.1 0 4-.3 5.6-.9 1.7-.6 3.2-1.3 4.6-2.3v-9.9h-7.3v.2zm-28.9-16.3h-1.1v29.1h1.1v-29.1zm-13.3 2.6c-1-1-2-1.7-3.2-2.2-1.2-.5-2.4-.7-3.9-.7-1.3 0-2.4.2-3.4.6-1 .4-1.8.9-2.5 1.6-.7.7-1.2 1.4-1.6 2.3-.4.9-.5 1.799-.5 2.699 0 1.2.2 2.2.6 3 .4.8 1 1.5 1.7 2s1.5 1.001 2.4 1.301c.9.4 1.8.7 2.7 1l2.7.9c.9.3 1.7.7 2.4 1.2s1.3 1.1 1.7 1.8c.4.7.6 1.6.6 2.7 0 1-.2 2-.5 2.9-.4.9-.9 1.7-1.6 2.4-.7.7-1.5 1.2-2.5 1.6-1 .4-2.1.6-3.4.6-.9 0-1.7-.1-2.4-.3-.7-.2-1.3-.401-1.8-.601-.5-.2-1-.499-1.4-.799-.4-.3-.7-.6-1-.8-.3-.3-.5-.5-.7-.6-.2-.2-.3-.301-.4-.301-.1 0-.2.001-.2.101l-.2.2-.3.4c.5.6 1 1.1 1.6 1.6.6.5 1.2.899 1.8 1.199.7.3 1.4.601 2.2.701.8.2 1.7.299 2.7.299 1.4 0 2.7-.199 3.8-.699 1.1-.4 2.1-1.101 2.9-1.801.8-.8 1.4-1.699 1.8-2.799.4-1.1.6-2.2.6-3.4 0-1.2-.2-2.2-.6-2.9-.4-.8-1-1.5-1.7-2s-1.5-1-2.4-1.3c-.9-.4-1.8-.7-2.7-1-.9-.3-1.9-.6-2.7-1-.9-.3-1.7-.7-2.4-1.2s-1.3-1.1-1.7-1.8c-.4-.7-.6-1.6-.6-2.7 0-.8.2-1.601.5-2.401.3-.8.8-1.399 1.3-1.999.6-.6 1.3-1 2.2-1.4.9-.3 1.9-.5 3-.5s2.1.1 2.8.4c.8.3 1.4.6 1.9.9.5.3.9.6 1.1.9.3.3.5.4.6.4.2 0 .3-.1.4-.2l.3-.3zm-41 25.6v-13.301h13.5v-1h-13.5V125.47h16v-1h-17.2v29.1h17.2v-1h-16v.1zm-14.8-7.801c-.6 1.7-1.4 3.101-2.5 4.301-1.1 1.2-2.4 1.999-3.9 2.699-1.5.7-3.2.901-5 .901h-9.4v-27.2h9.4c1.8 0 3.5.3 5 .9 1.5.6 2.8 1.5 3.9 2.6 1.1 1.2 1.9 2.599 2.5 4.299.6 1.7.9 3.601.9 5.801 0 2-.3 3.999-.9 5.699zm1.2-11.899c-.7-1.8-1.6-3.301-2.8-4.601-1.2-1.2-2.6-2.199-4.3-2.899-1.7-.7-3.5-1-5.5-1h-10.5v29.1h10.4c2 0 3.9-.3 5.5-1 1.7-.7 3.1-1.6 4.3-2.9 1.2-1.2 2.1-2.8 2.8-4.6.7-1.8 1-3.8 1-6.1 0-2.2-.3-4.2-.9-6zm-68.9-8.5v29.1h9c1.5 0 2.9-.2 4.1-.5 1.2-.3 2.2-.8 3-1.5.8-.7 1.4-1.5 1.9-2.4.4-1 .6-2.101.6-3.301 0-1-.2-1.899-.5-2.699-.3-.8-.8-1.5-1.5-2.1-.7-.6-1.5-1.1-2.4-1.5-.9-.4-2-.6-3.2-.8 1-.2 1.8-.501 2.6-.901s1.4-.999 2-1.599c.5-.6 1-1.3 1.3-2.1.3-.8.5-1.5.5-2.4 0-2.3-.8-4.1-2.3-5.4-1.5-1.3-3.9-1.9-7.1-1.9h-8zm7.9.9c2.8 0 4.9.6 6.2 1.7 1.4 1.1 2 2.699 2 4.799 0 .8-.1 1.501-.4 2.301-.3.8-.8 1.5-1.4 2.1-.7.6-1.5 1.1-2.5 1.5-1 .4-2.3.599-3.7.599h-6.9V125.37h6.7zm-6.7 27.3v-13.4h7.9c1.3 0 2.5.2 3.5.5s1.9.7 2.6 1.3c.7.6 1.3 1.2 1.7 2 .4.8.6 1.7.6 2.7 0 2.2-.7 3.899-2.2 5.099-1.5 1.2-3.5 1.701-6.3 1.701h-7.8v.1zm-28.2 0v-13.301h13.5v-1h-13.5V125.47h16v-1h-17.2v29.1h17.2v-1h-16v.1zm-11.9-28.2c-.3 0-.4.1-.5.4l-8 25.9c-.1.2-.1.5-.2.7-.1.2-.1.5-.2.8-.1-.6-.2-1-.4-1.5l-9-25.9c-.1-.2-.2-.4-.5-.4h-.3c-.3 0-.4.1-.5.4l-9 25.9c-.1.2-.1.5-.2.7-.1.2-.1.5-.2.8-.1-.5-.2-1-.4-1.5l-8-25.9c-.1-.2-.2-.4-.5-.4h-.9l9.2 29.1h1l9.3-26.9c.1-.3.2-.6.2-.8.1.3.1.6.2.8l9.2 26.9h1l9.2-29.1h-.5zM612.269 92.17c.6-.6.9-1.4.9-2.2v-18.9c0-1.9.3-3.6 1-5.2.6-1.6 1.5-3.1 2.6-4.4 1.1-1.3 2.2-2.3 3.5-3 1.3-.7 2.5-1 3.8-1 .9 0 1.7.1 2.3.4.6.3 1.3.4 1.9.4.7 0 1.4-.3 1.9-.8.6-.5.9-1.3.9-2.4 0-1-.5-1.7-1.4-2.3-1-.5-2-.8-3.1-.8-1.9 0-3.7.3-5.3 1-1.6.7-3 1.7-4.3 2.9-1.2 1.2-2.3 2.6-3.1 4.1-.8 1.5-1.4 3.1-1.7 4.7l.9 1.6v-10.1c0-.9-.3-1.6-.9-2.2-.6-.6-1.3-.9-2.2-.9-.9 0-1.6.3-2.2.9-.6.6-.9 1.3-.9 2.2v33.7c0 .9.3 1.6.9 2.2.6.6 1.3.9 2.2.9 1 .1 1.8-.2 2.3-.8zm-29.8-.1c2.5-1.2 4.4-2.6 5.9-4.2.8-.7 1.2-1.4 1.2-2.3 0-.7-.3-1.3-.8-1.9-.5-.5-1.1-.8-1.9-.8-.7 0-1.3.2-2 .7-.7.7-1.5 1.4-2.4 2.1-1 .7-2.1 1.3-3.4 1.7-1.3.5-2.9.7-4.8.7-2.8 0-5.3-.7-7.5-2s-3.9-3.1-5.1-5.4c-1.2-2.3-1.8-4.9-1.8-7.9 0-2.7.4-5 1.1-6.9.7-1.9 1.7-3.5 2.9-4.7 1.2-1.2 2.6-2.1 4.1-2.6 1.5-.5 3.1-.8 4.6-.8 1.9 0 3.7.4 5.5 1.2 1.8.8 3.2 2 4.5 3.5 1.2 1.5 1.9 3.3 2.1 5.5v1.7l1.2-1.1h-29.9l1.4 5.3h30.6c.8 0 1.5-.3 2.2-.9.6-.6 1-1.3 1-2.1-.1-2.9-.6-5.5-1.6-7.9-1-2.3-2.4-4.4-4.1-6-1.7-1.7-3.7-3-5.9-3.8-2.2-.9-4.5-1.3-6.9-1.3-3.2 0-6.2.8-9.1 2.5-2.8 1.7-5.1 4.1-6.9 7.3-1.8 3.2-2.7 7-2.7 11.5 0 4 .9 7.6 2.6 10.6 1.7 3.1 4.1 5.5 7.2 7.2 3.1 1.8 6.7 2.6 10.8 2.6 2.8.3 5.4-.3 7.9-1.5zm-63.3-38.7c-1.7.6-3.1 1.5-4.5 2.6-1.3 1.1-2.5 2.3-3.3 3.7-.9 1.4-1.4 2.7-1.7 4.1l1.5-1.7v-23.2c0-.9-.3-1.6-.9-2.2-.6-.6-1.3-.9-2.2-.9-.9 0-1.6.3-2.2.9-.6.6-.9 1.3-.9 2.2v51c0 .9.3 1.6.9 2.2.6.6 1.3.9 2.2.9.9 0 1.6-.3 2.2-.9.6-.6.9-1.4.9-2.2v-21.2c0-2 .5-3.7 1.5-5.3 1-1.6 2.4-2.8 4.2-3.8 1.8-1 3.7-1.4 5.8-1.4 2.3 0 4.1.5 5.4 1.4 1.3 1 2.3 2.2 2.8 3.8.6 1.6.9 3.3.9 5.3v21.2c0 .9.3 1.6.9 2.2.6.6 1.3.9 2.2.9.9 0 1.6-.3 2.2-.9.6-.6.9-1.4.9-2.2v-21.2c0-3-.4-5.7-1.3-8.2-.9-2.5-2.3-4.4-4.3-5.9s-4.7-2.2-8.1-2.2c-1.7.1-3.5.4-5.1 1zm-45 6.3c2.1 1.3 3.7 3.1 4.9 5.3 1.2 2.3 1.8 4.9 1.8 7.9 0 2.9-.6 5.5-1.8 7.8-1.2 2.3-2.8 4.1-4.9 5.4-2.1 1.3-4.4 2-7.1 2-2.7 0-5.1-.7-7.1-2-2.1-1.3-3.7-3.2-4.9-5.5-1.2-2.3-1.8-4.9-1.8-7.7 0-2.9.6-5.5 1.8-7.8 1.2-2.3 2.8-4.1 4.9-5.4 2.1-1.3 4.4-2 7.1-2 2.6.1 5 .8 7.1 2zm-17.6-4.9c-2.8 1.8-5.1 4.2-6.8 7.4-1.7 3.1-2.5 6.8-2.5 10.8 0 4 .8 7.6 2.5 10.8 1.7 3.1 3.9 5.6 6.8 7.4 2.9 1.8 6.1 2.7 9.7 2.7 1.7 0 3.4-.3 5.1-.8 1.7-.5 3.2-1.3 4.6-2.2 1.4-1 2.5-2.1 3.4-3.3.9-1.2 1.5-2.6 1.9-4l-.9-.4v7.2c0 3.8-1.2 6.8-3.5 9.1-2.3 2.299-5.7 3.399-10.1 3.399-1.2 0-2.5-.1-3.8-.4-1.3-.3-2.4-.6-3.4-1s-1.7-.6-2.2-.8c-1.1-.5-2.1-.7-2.8-.7-.7 0-1.3.4-1.9 1.1-.4.6-.5 1.2-.3 1.8.2.6.7 1.2 1.4 1.7.4.6 1.3 1.2 2.7 1.8 1.4.6 3.1 1.1 5 1.5 1.9.4 3.6.6 5.1.6 3.7 0 7-.7 10-2.1 3-1.4 5.4-3.5 7.2-6.3 1.8-2.8 2.7-6.3 2.7-10.5v-33.8c0-.9-.3-1.6-.9-2.2-.6-.6-1.3-.9-2.2-.9-.9 0-1.6.3-2.2.9-.6.6-.9 1.3-.9 2.2v6.7l1.5.9c0-1.1-.4-2.3-1.2-3.6-.8-1.3-1.9-2.5-3.3-3.7-1.4-1.2-3.1-2.2-5-2.9-1.9-.7-4-1.1-6.3-1.1-3.4 0-6.6.9-9.4 2.7zm-25.2-8.3c.6-.5 1-1.3 1-2.4v-1.1c0-1.1-.3-1.9-.9-2.4-.6-.5-1.5-.8-2.8-.8-1.2 0-2.2.3-2.9.8-.7.5-1 1.3-1 2.4v1.1c0 1.1.3 1.9.9 2.4.6.5 1.6.8 2.9.8 1.2 0 2.1-.3 2.8-.8zm.3 9.1c0-.9-.3-1.6-.9-2.2-.6-.6-1.3-.9-2.2-.9-.9 0-1.6.3-2.2.9-.6.6-.9 1.3-.9 2.2v34.4c0 .9.3 1.6.9 2.2.6.6 1.3.9 2.2.9.9 0 1.6-.3 2.2-.9.6-.6.9-1.4.9-2.2v-34.4zm-64.9 13h36.2l.1-6h-36.1l-.2 6zm33.9-28.8c-.6.6-1 1.4-1 2.3v47.8c0 .9.3 1.6.9 2.2.6.6 1.4.9 2.2.9.9 0 1.7-.3 2.3-.9.6-.6.9-1.4.9-2.2v-47.8c0-.9-.3-1.7-.9-2.3-.6-.6-1.4-.9-2.3-.9-.7 0-1.4.3-2.1.9zm-35.7 0c-.6.6-.9 1.4-.9 2.3v47.8c0 .9.3 1.6.9 2.2.6.6 1.3.9 2.3.9.9 0 1.6-.3 2.3-.9.6-.6 1-1.4 1-2.2v-47.8c0-.9-.3-1.7-.9-2.3-.6-.6-1.4-.9-2.2-.9-1.1 0-1.9.3-2.5.9z" />
	<path fill="var(--logo-secondary)" d="M298.97 53.47c-1.7.7-3.1 1.6-4.5 2.7-1.3 1.1-2.4 2.4-3.3 3.7-.9 1.3-1.4 2.7-1.6 4l1.7-1.9v-5.9c0-.9-.3-1.6-.9-2.2-.6-.6-1.3-.9-2.2-.9-.9 0-1.6.3-2.2.9-.6.6-.9 1.3-.9 2.2v33.7c0 .9.3 1.6.9 2.2.6.6 1.3.9 2.2.9.9 0 1.6-.3 2.2-.9.6-.6.9-1.4.9-2.2v-21.1c0-2 .5-3.7 1.5-5.3 1-1.6 2.4-2.8 4.1-3.8 1.7-1 3.6-1.4 5.6-1.4 2.3 0 4.1.5 5.3 1.4 1.3 1 2.2 2.2 2.7 3.8.5 1.6.8 3.3.8 5.3v21.2c0 .9.3 1.6.9 2.2.6.6 1.3.9 2.2.9.9 0 1.7-.3 2.2-.9.6-.6.9-1.4.9-2.2v-20.9c0-2 .5-3.8 1.5-5.5 1-1.6 2.4-2.9 4.2-3.9 1.8-1 3.7-1.4 5.8-1.4 2.3 0 4.1.5 5.4 1.4 1.3 1 2.299 2.2 2.9 3.9.6 1.6.9 3.4.9 5.5v21c0 .9.3 1.6.9 2.2.6.6 1.3.9 2.2.9.899 0 1.6-.3 2.2-.9.6-.6.9-1.4.9-2.2v-21.2c0-3-.4-5.8-1.3-8.2-.9-2.4-2.3-4.4-4.2-5.9-2-1.5-4.6-2.2-8-2.2-2.1 0-4.2.4-6.1 1.3-2 .9-3.7 2-5.2 3.3-1.5 1.3-2.6 2.7-3.2 4.2l-.5 1.4h1.2c-.7-3.3-2.2-5.8-4.4-7.5-2.2-1.8-5-2.7-8.6-2.7-1.7 0-3.5.3-5.1 1zm-32.2-7c.599-.5 1-1.3 1-2.4v-1.1c0-1.1-.3-1.9-.9-2.4-.6-.5-1.5-.8-2.8-.8-1.2 0-2.2.3-2.9.8-.7.5-1 1.3-1 2.4v1.1c0 1.1.3 1.9.9 2.4.6.5 1.6.8 2.9.8 1.2 0 2.1-.3 2.8-.8zm.2 9.1c0-.9-.3-1.6-.9-2.2-.6-.6-1.3-.9-2.2-.9-.9 0-1.6.3-2.2.9-.6.6-.9 1.3-.9 2.2v34.4c0 .9.3 1.6.9 2.2.6.6 1.3.9 2.2.9.9 0 1.6-.3 2.2-.9.6-.6.9-1.4.9-2.2v-34.4zm-30.5 23l-1.2-6h-23l-2.6 6h26.8zm-14.1-31.7l18.4 44.3c.3.7.6 1.2 1.2 1.5.5.4 1.1.5 1.7.5.8 0 1.5-.3 2.1-.8.6-.5.9-1.3.9-2.2 0-.4-.1-.8-.2-1.2l-20-48.3c-.2-.6-.6-1.1-1.1-1.5-.5-.4-1.1-.5-1.8-.5-.7-.1-1.3.1-1.8.4-.5.3-.9.9-1.2 1.6l-20 48.8c-.2.4-.2.8-.2 1.2 0 .7.2 1.3.7 1.9.5.5 1.2.8 2.2.8.6 0 1.1-.2 1.6-.5.5-.4.9-.9 1.1-1.5l18.1-44.4-1.7-.1z" />
	<defs>
		<linearGradient id="_LogoGradient" x1="0" y1="0" x2="1" y2="0" gradientUnits="userSpaceOnUse">
			<stop offset="0" style="stop-color:rgb(13, 125, 188);
	stop-opacity:1" />
			<stop offset="1" style="stop-color:rgb(14, 172, 187);
	stop-opacity:1" />
		</linearGradient>
	</defs>
</svg>
